<?xml version="1.0" encoding="utf-8"?>
<!-- Generator: Adobe Illustrator 15.0.0, SVG Export Plug-In . SVG Version: 6.00 Build 0)  -->
<!DOCTYPE svg PUBLIC "-//W3C//DTD SVG 1.1//EN" "http://www.w3.org/Graphics/SVG/1.1/DTD/svg11.dtd">
<svg version="1.1" xmlns="http://www.w3.org/2000/svg" xmlns:xlink="http://www.w3.org/1999/xlink" x="0px" y="0px" width="2000px"
	 height="2000px" viewBox="0 0 2000 2000" enable-background="new 0 0 2000 2000" xml:space="preserve">
<g id="Layer_1">
	<g>
		<g>
			<g>
				<text transform="matrix(-0.5 -0.866 0.866 -0.5 386.9272 1798.2168)"><tspan x="0" y="0" font-family="'Roboto-Regular'" font-size="40">10</tspan><tspan x="45.058" y="0" font-family="'Roboto-Regular'" font-size="40">0</tspan><tspan x="68.198" y="-7.601" font-family="'Roboto-Regular'" font-size="28">%</tspan></text>
				<text transform="matrix(-0.5 -0.866 0.866 -0.5 481.5679 1719.8848)" font-family="'Roboto-Regular'" font-size="40">90</text>
				<text transform="matrix(-0.5 -0.866 0.866 -0.5 586.4678 1659.3223)" font-family="'Roboto-Regular'" font-size="40">80</text>
				<text transform="matrix(-0.5 -0.866 0.866 -0.5 691.3677 1598.7559)" font-family="'Roboto-Regular'" font-size="40">70</text>
				<text transform="matrix(-0.5 -0.866 0.866 -0.5 796.2676 1538.1934)" font-family="'Roboto-Regular'" font-size="40">60</text>
				<text transform="matrix(-0.5 -0.866 0.866 -0.5 901.1665 1477.6309)" font-family="'Roboto-Regular'" font-size="40">50</text>
				<text transform="matrix(-0.5 -0.866 0.866 -0.5 1006.0664 1417.0645)" font-family="'Roboto-Regular'" font-size="40">40</text>
				<text transform="matrix(-0.5 -0.866 0.866 -0.5 1110.9658 1356.502)" font-family="'Roboto-Regular'" font-size="40">30</text>
				<text transform="matrix(-0.5 -0.866 0.866 -0.5 1215.8662 1295.9355)" font-family="'Roboto-Regular'" font-size="40">20</text>
				<text transform="matrix(-0.5 -0.866 0.866 -0.5 1320.7656 1235.373)" font-family="'Roboto-Regular'" font-size="40">10</text>
				<text transform="matrix(-0.5 -0.866 0.866 -0.5 1415.4062 1157.041)" font-family="'Roboto-Regular'" font-size="40">0</text>
			</g>
			<g>
				<line fill="none" stroke="#333333" stroke-width="0.1" x1="1437.924" y1="1191.578" x2="1437.924" y2="1191.578"/>
				<line fill="none" stroke="#333333" stroke-width="0.1" x1="1333.025" y1="1252.143" x2="1333.025" y2="1252.143"/>
				<line fill="none" stroke="#333333" stroke-width="0.1" x1="1228.127" y1="1312.706" x2="1228.127" y2="1312.706"/>
				<line fill="none" stroke="#333333" stroke-width="0.1" x1="1123.227" y1="1373.271" x2="1123.227" y2="1373.271"/>
				<line fill="none" stroke="#333333" stroke-width="0.1" x1="1018.328" y1="1433.834" x2="1018.328" y2="1433.834"/>
				<line fill="none" stroke="#333333" stroke-width="0.1" x1="913.427" y1="1494.398" x2="879.694" y2="1435.972"/>
				<line fill="none" stroke="#333333" stroke-width="0.1" x1="808.528" y1="1554.962" x2="739.829" y2="1435.972"/>
				<line fill="none" stroke="#333333" stroke-width="0.1" x1="703.627" y1="1615.525" x2="599.962" y2="1435.972"/>
				<line fill="none" stroke="#333333" stroke-width="0.1" x1="598.727" y1="1676.09" x2="460.095" y2="1435.972"/>
				<line fill="none" stroke="#333333" stroke-width="0.1" x1="493.828" y1="1736.654" x2="320.229" y2="1435.972"/>
				<line fill="none" stroke="#333333" stroke-width="0.1" x1="388.927" y1="1797.218" x2="179.129" y2="1433.834"/>
			</g>
		</g>
		<g>
			<g>
				<text transform="matrix(-0.5 0.866 -0.866 -0.5 1787.124 1072.5879)"><tspan x="0" y="0" font-family="'Roboto-Regular'" font-size="40">10</tspan><tspan x="45.058" y="0" font-family="'Roboto-Regular'" font-size="40">0</tspan><tspan x="68.198" y="-7.601" font-family="'Roboto-Regular'" font-size="28">%</tspan></text>
				<text transform="matrix(-0.5 0.866 -0.866 -0.5 1671.9639 1029.7939)" font-family="'Roboto-Regular'" font-size="40">90</text>
				<text transform="matrix(-0.5 0.866 -0.866 -0.5 1567.0654 969.23)" font-family="'Roboto-Regular'" font-size="40">80</text>
				<text transform="matrix(-0.5 0.866 -0.866 -0.5 1462.165 908.666)" font-family="'Roboto-Regular'" font-size="40">70</text>
				<text transform="matrix(-0.5 0.866 -0.866 -0.5 1357.2646 848.1021)" font-family="'Roboto-Regular'" font-size="40">60</text>
				<text transform="matrix(-0.5 0.866 -0.866 -0.5 1252.3662 787.5386)" font-family="'Roboto-Regular'" font-size="40">50</text>
				<text transform="matrix(-0.5 0.866 -0.866 -0.5 1147.4658 726.9746)" font-family="'Roboto-Regular'" font-size="40">40</text>
				<text transform="matrix(-0.5 0.866 -0.866 -0.5 1042.5674 666.4106)" font-family="'Roboto-Regular'" font-size="40">30</text>
				<text transform="matrix(-0.5 0.866 -0.866 -0.5 937.667 605.8467)" font-family="'Roboto-Regular'" font-size="40">20</text>
				<text transform="matrix(-0.5 0.866 -0.866 -0.5 832.7666 545.2827)" font-family="'Roboto-Regular'" font-size="40">10</text>
				<text transform="matrix(-0.5 0.866 -0.866 -0.5 717.6064 502.4893)" font-family="'Roboto-Regular'" font-size="40">0</text>
			</g>
			<g>
				<line fill="none" stroke="#333333" stroke-width="0.1" x1="736.126" y1="464.812" x2="736.126" y2="464.812"/>
				<line fill="none" stroke="#333333" stroke-width="0.1" x1="841.026" y1="525.375" x2="841.026" y2="525.375"/>
				<line fill="none" stroke="#333333" stroke-width="0.1" x1="945.926" y1="585.939" x2="945.926" y2="585.939"/>
				<line fill="none" stroke="#333333" stroke-width="0.1" x1="1050.824" y1="646.503" x2="1050.824" y2="646.503"/>
				<line fill="none" stroke="#333333" stroke-width="0.1" x1="1155.723" y1="707.067" x2="1155.723" y2="707.067"/>
				<line fill="none" stroke="#333333" stroke-width="0.1" x1="1260.625" y1="767.631" x2="1226.893" y2="826.058"/>
				<line fill="none" stroke="#333333" stroke-width="0.1" x1="1365.523" y1="828.195" x2="1296.824" y2="947.185"/>
				<line fill="none" stroke="#333333" stroke-width="0.1" x1="1470.424" y1="888.759" x2="1365.525" y2="1070.451"/>
				<line fill="none" stroke="#333333" stroke-width="0.1" x1="1575.324" y1="949.322" x2="1436.691" y2="1189.44"/>
				<line fill="none" stroke="#333333" stroke-width="0.1" x1="1680.225" y1="1009.887" x2="1506.008" y2="1311.639"/>
				<line fill="none" stroke="#333333" stroke-width="0.1" x1="1785.123" y1="1070.451" x2="1575.324" y2="1433.834"/>
			</g>
		</g>
		<g>
			<g>
				<text transform="matrix(1 0 0 1 457.6265 222.6934)"><tspan x="0" y="0" font-family="'Roboto-Regular'" font-size="40">10</tspan><tspan x="45.059" y="0" font-family="'Roboto-Regular'" font-size="40">0</tspan><tspan x="68.198" y="-7.6" font-family="'Roboto-Regular'" font-size="28">%</tspan></text>
				<text transform="matrix(1 0 0 1 478.1455 343.8213)" font-family="'Roboto-Regular'" font-size="40">90</text>
				<text transform="matrix(1 0 0 1 478.1455 464.9492)" font-family="'Roboto-Regular'" font-size="40">80</text>
				<text transform="matrix(1 0 0 1 478.1455 586.0771)" font-family="'Roboto-Regular'" font-size="40">70</text>
				<text transform="matrix(1 0 0 1 478.1455 707.2051)" font-family="'Roboto-Regular'" font-size="40">60</text>
				<text transform="matrix(1 0 0 1 478.1455 828.332)" font-family="'Roboto-Regular'" font-size="40">50</text>
				<text transform="matrix(1 0 0 1 478.1455 949.46)" font-family="'Roboto-Regular'" font-size="40">40</text>
				<text transform="matrix(1 0 0 1 478.1455 1070.5879)" font-family="'Roboto-Regular'" font-size="40">30</text>
				<text transform="matrix(1 0 0 1 478.1455 1191.7158)" font-family="'Roboto-Regular'" font-size="40">20</text>
				<text transform="matrix(1 0 0 1 478.1455 1312.8438)" font-family="'Roboto-Regular'" font-size="40">10</text>
				<text transform="matrix(1 0 0 1 498.665 1433.9717)" font-family="'Roboto-Regular'" font-size="40">0</text>
			</g>
			<g>
				<line display="none" fill="none" stroke="#333333" stroke-width="0.1" x1="457.626" y1="1435.972" x2="877.227" y2="1435.972"/>
				<line display="none" fill="none" stroke="#333333" stroke-width="0.1" x1="457.626" y1="1314.844" x2="877.227" y2="1314.844"/>
				<line display="none" fill="none" stroke="#333333" stroke-width="0.1" x1="457.626" y1="1193.716" x2="877.227" y2="1193.716"/>
				<line display="none" fill="none" stroke="#333333" stroke-width="0.1" x1="457.626" y1="1072.588" x2="877.227" y2="1072.588"/>
				<line display="none" fill="none" stroke="#333333" stroke-width="0.1" x1="457.626" y1="951.46" x2="877.227" y2="951.46"/>
				<line fill="none" stroke="#333333" stroke-width="0.1" x1="457.626" y1="830.332" x2="525.092" y2="830.332"/>
				<line fill="none" stroke="#333333" stroke-width="0.1" x1="457.626" y1="709.204" x2="595.026" y2="709.204"/>
				<line fill="none" stroke="#333333" stroke-width="0.1" x1="457.626" y1="588.077" x2="664.958" y2="588.077"/>
				<line fill="none" stroke="#333333" stroke-width="0.1" x1="457.626" y1="466.949" x2="734.892" y2="466.949"/>
				<line fill="none" stroke="#333333" stroke-width="0.1" x1="457.626" y1="345.821" x2="804.825" y2="345.821"/>
				<line fill="none" stroke="#333333" stroke-width="0.1" x1="457.626" y1="224.693" x2="877.227" y2="224.693"/>
			</g>
		</g>
	</g>
	<g display="none">
		
			<line display="inline" fill="none" stroke="#999999" stroke-width="0.1" stroke-dasharray="1,2" x1="1577.793" y1="1433.834" x2="878.459" y2="222.556"/>
		
			<line display="inline" fill="none" stroke="#999999" stroke-width="0.1" stroke-dasharray="1,2" x1="1437.924" y1="1433.834" x2="808.528" y2="343.684"/>
		
			<line display="inline" fill="none" stroke="#999999" stroke-width="0.1" stroke-dasharray="1,2" x1="1298.061" y1="1433.834" x2="738.593" y2="464.812"/>
		
			<line display="inline" fill="none" stroke="#999999" stroke-width="0.1" stroke-dasharray="1,2" x1="1158.191" y1="1433.834" x2="668.662" y2="585.939"/>
		
			<line display="inline" fill="none" stroke="#999999" stroke-width="0.1" stroke-dasharray="1,2" x1="1018.328" y1="1433.834" x2="598.727" y2="707.067"/>
		
			<line display="inline" fill="none" stroke="#999999" stroke-width="0.1" stroke-dasharray="1,2" x1="878.461" y1="1433.834" x2="528.795" y2="828.195"/>
		
			<line display="inline" fill="none" stroke="#999999" stroke-width="0.1" stroke-dasharray="1,2" x1="738.593" y1="1433.834" x2="458.861" y2="949.322"/>
		
			<line display="inline" fill="none" stroke="#999999" stroke-width="0.1" stroke-dasharray="1,2" x1="598.727" y1="1433.834" x2="388.927" y2="1070.451"/>
		
			<line display="inline" fill="none" stroke="#999999" stroke-width="0.1" stroke-dasharray="1,2" x1="458.861" y1="1433.834" x2="318.996" y2="1191.578"/>
		
			<line display="inline" fill="none" stroke="#999999" stroke-width="0.1" stroke-dasharray="1,2" x1="318.996" y1="1433.834" x2="249.061" y2="1312.706"/>
		
			<line display="inline" fill="none" stroke="#999999" stroke-width="0.1" stroke-dasharray="1,2" x1="179.129" y1="1433.834" x2="179.129" y2="1433.834"/>
	</g>
	<g display="none">
		
			<line display="inline" fill="none" stroke="#999999" stroke-width="0.1" stroke-dasharray="1,2" x1="875.993" y1="222.556" x2="176.661" y2="1433.834"/>
		
			<line display="inline" fill="none" stroke="#999999" stroke-width="0.1" stroke-dasharray="1,2" x1="945.926" y1="343.684" x2="316.526" y2="1433.834"/>
		
			<line display="inline" fill="none" stroke="#999999" stroke-width="0.1" stroke-dasharray="1,2" x1="1015.859" y1="464.812" x2="456.394" y2="1433.834"/>
		
			<line display="inline" fill="none" stroke="#999999" stroke-width="0.1" stroke-dasharray="1,2" x1="1085.791" y1="585.939" x2="596.26" y2="1433.834"/>
		
			<line display="inline" fill="none" stroke="#999999" stroke-width="0.1" stroke-dasharray="1,2" x1="1155.723" y1="707.067" x2="736.126" y2="1433.834"/>
		
			<line display="inline" fill="none" stroke="#999999" stroke-width="0.1" stroke-dasharray="1,2" x1="1225.658" y1="828.195" x2="875.993" y2="1433.834"/>
		
			<line display="inline" fill="none" stroke="#999999" stroke-width="0.1" stroke-dasharray="1,2" x1="1295.592" y1="949.322" x2="1015.859" y2="1433.834"/>
		
			<line display="inline" fill="none" stroke="#999999" stroke-width="0.1" stroke-dasharray="1,2" x1="1365.525" y1="1070.451" x2="1155.727" y2="1433.834"/>
		
			<line display="inline" fill="none" stroke="#999999" stroke-width="0.1" stroke-dasharray="1,2" x1="1435.459" y1="1191.578" x2="1295.592" y2="1433.834"/>
		
			<line display="inline" fill="none" stroke="#999999" stroke-width="0.1" stroke-dasharray="1,2" x1="1505.391" y1="1312.706" x2="1435.459" y2="1433.834"/>
		
			<line display="inline" fill="none" stroke="#999999" stroke-width="0.1" stroke-dasharray="1,2" x1="1575.324" y1="1433.834" x2="1575.324" y2="1433.834"/>
	</g>
	<g>
		
			<line fill="none" stroke="#999999" stroke-width="0.1" stroke-dasharray="1,2" x1="177.895" y1="1435.972" x2="1576.559" y2="1435.972"/>
		
			<line fill="none" stroke="#999999" stroke-width="0.1" stroke-dasharray="1,2" x1="247.829" y1="1314.844" x2="1506.623" y2="1314.844"/>
		
			<line fill="none" stroke="#999999" stroke-width="0.1" stroke-dasharray="1,2" x1="317.761" y1="1193.716" x2="1436.691" y2="1193.716"/>
		
			<line fill="none" stroke="#999999" stroke-width="0.1" stroke-dasharray="1,2" x1="387.695" y1="1072.588" x2="1366.76" y2="1072.588"/>
		
			<line fill="none" stroke="#999999" stroke-width="0.1" stroke-dasharray="1,2" x1="457.626" y1="951.46" x2="1296.824" y2="951.46"/>
		
			<line fill="none" stroke="#999999" stroke-width="0.1" stroke-dasharray="1,2" x1="527.561" y1="830.332" x2="1226.891" y2="830.332"/>
		
			<line fill="none" stroke="#999999" stroke-width="0.1" stroke-dasharray="1,2" x1="597.493" y1="709.204" x2="1156.959" y2="709.204"/>
		
			<line fill="none" stroke="#999999" stroke-width="0.1" stroke-dasharray="1,2" x1="667.427" y1="588.077" x2="1087.027" y2="588.077"/>
		
			<line fill="none" stroke="#999999" stroke-width="0.1" stroke-dasharray="1,2" x1="737.359" y1="466.949" x2="1017.094" y2="466.949"/>
		
			<line fill="none" stroke="#999999" stroke-width="0.1" stroke-dasharray="1,2" x1="807.293" y1="345.821" x2="947.16" y2="345.821"/>
		
			<line fill="none" stroke="#999999" stroke-width="0.1" stroke-dasharray="1,2" x1="877.227" y1="224.693" x2="877.227" y2="224.693"/>
	</g>
	<polyline fill="none" stroke="#ED2224" stroke-width="0.1" points="877.228,1433.834 877.228,224.693 877.228,224.693 	"/>
	<polyline fill="none" stroke="#ED2224" stroke-width="0.1" points="529.412,831.402 1576.559,1435.972 1576.559,1435.972 	"/>
	<polyline fill="none" stroke="#ED2224" stroke-width="0.1" points="1225.041,831.4 177.895,1435.972 177.895,1435.972 	"/>
	<g>
		<circle fill="#EEE8AA" fill-opacity="0.8" cx="754.844" cy="738.062" r="33.335"/>
		<circle fill="#EDCA8E" fill-opacity="0.8" cx="783.286" cy="530.607" r="42.751"/>
		<circle fill="#E9AA73" fill-opacity="0.8" cx="1032.633" cy="627.027" r="22.801"/>
		<circle fill="#E38C59" fill-opacity="0.8" cx="712.677" cy="793.282" r="37.468"/>
		<circle fill="#DA6B3F" fill-opacity="0.8" cx="798.057" cy="588.937" r="38.17"/>
		<circle fill="#D04726" fill-opacity="0.8" cx="810.624" cy="569.348" r="24.521"/>
		<circle fill="#C40D0D" fill-opacity="0.8" cx="803.612" cy="478.274" r="23.389"/>
	</g>
	<text transform="matrix(0.866 0.5 -0.5 0.866 1580.3438 938.4912)" font-family="'Roboto-Regular'" font-size="36">DERROTAS</text>
	<text transform="matrix(0 -1 1 0 447.5874 466.9492)" font-family="'Roboto-Regular'" font-size="36">VITÓRIAS</text>
	<text transform="matrix(0.866 -0.5 0.5 0.866 482.5098 1793)" font-family="'Roboto-Regular'" font-size="36">EMPATES</text>
</g>
<g id="Layer_2">
</g>
<g id="Layer_3">
	<text transform="matrix(1 0 0 1 5224.4346 1494.4727)" font-family="'Roboto-Regular'" font-size="45">MAIS DERROTAS</text>
</g>
</svg>
